<svg width="36" height="36" viewBox="0 0 36 36" fill="none" xmlns="http://www.w3.org/2000/svg">
<rect width="36" height="36" rx="8" fill="#FFFDFA"/>
<path d="M19 14.9999C19 14.7167 19.1224 14.4869 19.2539 14.3708C19.3152 14.3167 19.3672 14.2963 19.4023 14.2896C19.4321 14.2838 19.4801 14.2814 19.5577 14.3143C20.9948 14.9226 22 16.345 22 17.9999C22 19.6548 20.9948 21.0773 19.5577 21.6856C19.4801 21.7184 19.4321 21.716 19.4023 21.7103C19.3672 21.7036 19.3152 21.6832 19.2539 21.629C19.1224 21.513 19 21.2832 19 20.9999V14.9999Z" fill="#D9614C"/>
<path fill-rule="evenodd" clip-rule="evenodd" d="M18 8C12.4772 8 8 12.4772 8 18C8 23.5228 12.4772 28 18 28C23.5228 28 28 23.5228 28 18C28 12.4772 23.5228 8 18 8ZM20.3373 12.4726C19.4346 12.0905 18.5449 12.3293 17.9307 12.8712C17.3428 13.3899 17 14.1787 17 15V21C17 21.8213 17.3428 22.6101 17.9307 23.1288C18.5449 23.6707 19.4346 23.9095 20.3373 23.5274C22.488 22.6171 24 20.4863 24 18C24 15.5137 22.488 13.3829 20.3373 12.4726Z" fill="#D9614C"/>
<rect x="0.5" y="0.5" width="35" height="35" rx="7.5" stroke="#E6EEF2" stroke-opacity="0.5"/>
</svg>
