<svg width="10" height="16" viewBox="0 0 10 16" fill="none" xmlns="http://www.w3.org/2000/svg">
<path fill-rule="evenodd" clip-rule="evenodd" d="M0.428413 1.67524C0.424847 2.11501 0.588215 2.53977 0.885556 2.86381L5.74498 7.99981L0.885555 13.1358C0.587823 13.4589 0.422535 13.8822 0.422535 14.3215C0.422535 14.7609 0.587823 15.1842 0.885555 15.5072C1.02795 15.6626 1.2011 15.7867 1.39401 15.8715C1.58692 15.9564 1.79537 16.0002 2.00613 16.0002C2.21688 16.0002 2.42533 15.9564 2.61824 15.8715C2.81115 15.7867 2.9843 15.6626 3.1267 15.5072L9.10613 9.18495C9.40511 8.86318 9.57129 8.4402 9.57129 8.00095C9.57129 7.56171 9.40511 7.13873 9.10613 6.81695L3.13241 0.492383C2.99002 0.337011 2.81687 0.21295 2.62396 0.128078C2.43105 0.0432063 2.2226 -0.000620939 2.01184 -0.000620958C1.80109 -0.000620976 1.59264 0.0432062 1.39973 0.128078C1.20682 0.21295 1.03367 0.337011 0.891271 0.492383C0.594294 0.814363 0.430869 1.23723 0.434128 1.67524" fill="#595550"/>
</svg>