<svg width="20" height="20" xmlns="http://www.w3.org/2000/svg"><path d="M14.279 1.727H1.444A1.45 1.45 0 0 0 0 3.16v.581a1.444 1.444 0 0 0 1.444 1.442H14.28a1.444 1.444 0 0 0 1.444-1.442v-.583a1.45 1.45 0 0 0-1.444-1.431Zm4.278 6.544H1.444A1.451 1.451 0 0 0 0 9.704v.582a1.445 1.445 0 0 0 1.444 1.442h17.113A1.443 1.443 0 0 0 20 10.286v-.583a1.448 1.448 0 0 0-1.443-1.432Zm-9.271 6.546H1.444A1.45 1.45 0 0 0 0 16.246v.58a1.445 1.445 0 0 0 1.444 1.443h7.842a1.444 1.444 0 0 0 1.444-1.443v-.582a1.45 1.45 0 0 0-1.444-1.427Z" fill="#403B36"/></svg>