<svg width="36" height="36" viewBox="0 0 36 36" fill="none" xmlns="http://www.w3.org/2000/svg">
<rect width="36" height="36" rx="8" fill="#FFFDFA"/>
<path fill-rule="evenodd" clip-rule="evenodd" d="M25.0188 14.8799C26.3065 13.587 26.2519 11.8892 25.2902 10.8495C24.8213 10.3425 24.154 10.0186 23.398 10.0008C22.6393 9.98286 21.8533 10.273 21.1279 10.8799C21.1094 10.8954 21.0915 10.9118 21.0745 10.9289L10.6996 21.3453C10.2515 21.7951 10 22.4041 10 23.0389V24.3937C10 25.2749 10.7136 26 11.6031 26H12.9461C13.5843 26 14.1962 25.7458 14.6465 25.2937L25.0188 14.8799ZM22.3071 12.8929C21.9165 12.5024 21.2834 12.5024 20.8928 12.8929C20.5023 13.2834 20.5023 13.9166 20.8928 14.3071L21.6928 15.1071C22.0834 15.4977 22.7165 15.4977 23.107 15.1071C23.4976 14.7166 23.4976 14.0835 23.1071 13.6929L22.3071 12.8929Z" fill="#D9614C"/>
<rect x="0.5" y="0.5" width="35" height="35" rx="7.5" stroke="#E6EEF2" stroke-opacity="0.5"/>
</svg>
