<svg width="36" height="36" viewBox="0 0 36 36" fill="none" xmlns="http://www.w3.org/2000/svg">
<rect width="36" height="36" rx="8" fill="#FFFDFA"/>
<path d="M23.2929 20.2929C22.9024 20.6834 22.9024 21.3166 23.2929 21.7071C23.6834 22.0976 24.3166 22.0976 24.7071 21.7071L27.6201 18.7941C27.6351 18.7791 27.6497 18.7637 27.6637 18.748C27.87 18.5648 28 18.2976 28 18C28 17.7024 27.87 17.4352 27.6637 17.252C27.6497 17.2363 27.6351 17.2209 27.6201 17.2059L24.7071 14.2929C24.3166 13.9024 23.6834 13.9024 23.2929 14.2929C22.9024 14.6834 22.9024 15.3166 23.2929 15.7071L24.5858 17H19C18.4477 17 18 17.4477 18 18C18 18.5523 18.4477 19 19 19H24.5858L23.2929 20.2929Z" fill="#D9614C"/>
<path d="M11 8C9.34315 8 8 9.34315 8 11V25C8 26.6569 9.34315 28 11 28H20.5C21.8807 28 23 26.8807 23 25.5V22.7326C22.8519 22.647 22.7125 22.5409 22.5858 22.4142C21.9314 21.7598 21.8253 20.7649 22.2674 20H19C17.8954 20 17 19.1046 17 18C17 16.8954 17.8954 16 19 16H22.2674C21.8253 15.2351 21.9314 14.2401 22.5858 13.5858C22.7125 13.4591 22.8519 13.353 23 13.2674V10.5C23 9.11929 21.8807 8 20.5 8H11Z" fill="#D9614C"/>
<rect x="0.5" y="0.5" width="35" height="35" rx="7.5" stroke="#E6EEF2" stroke-opacity="0.5"/>
</svg>
