<svg width="36" height="36" viewBox="0 0 36 36" fill="none" xmlns="http://www.w3.org/2000/svg">
<rect width="36" height="36" rx="8" fill="#FFFDFA"/>
<path fill-rule="evenodd" clip-rule="evenodd" d="M13.2504 10.6635C14.1201 9.36729 15.6232 8 18.0001 8C20.377 8 21.8802 9.36729 22.7499 10.6635C23.6075 11.9417 23.9254 13.2474 23.9712 13.4476C23.9776 13.4758 23.9823 13.4993 23.9854 13.5154L25.5201 21.4288C25.8792 23.2803 24.461 25 22.575 25H13.4253C11.5393 25 10.1211 23.2803 10.4802 21.4288L12.0149 13.5154C12.018 13.4993 12.0226 13.4758 12.0291 13.4476C12.0749 13.2474 12.3927 11.9417 13.2504 10.6635Z" fill="#D9614C"/>
<path d="M14.5137 26C14.7656 26.4807 15.1515 26.9831 15.7365 27.3672C16.3463 27.7675 17.1131 28 18.0466 28C18.98 28 19.7468 27.7675 20.3566 27.3672C20.9416 26.9831 21.3275 26.4807 21.5795 26H14.5137Z" fill="#D9614C"/>
<rect x="0.5" y="0.5" width="35" height="35" rx="7.5" stroke="#E6EEF2" stroke-opacity="0.5"/>
</svg>
