<svg width="36" height="36" viewBox="0 0 36 36" fill="none" xmlns="http://www.w3.org/2000/svg">
<rect width="36" height="36" rx="8" fill="#FFFDFA"/>
<path fill-rule="evenodd" clip-rule="evenodd" d="M12 15.0006C12 11.6866 14.6866 9 18.0006 9C21.3146 9 24.0012 11.6866 24.0012 15.0006C24.0012 18.3146 21.3146 21.0012 18.0006 21.0012C14.6866 21.0012 12 18.3146 12 15.0006Z" fill="#D9614C"/>
<path d="M13.11 20.0099L12.1464 22.9009C11.2872 25.4785 14.0229 27.7795 16.4151 26.4913L17.5267 25.8928C17.8227 25.7334 18.179 25.7334 18.475 25.8928L19.5865 26.4913C21.9788 27.7795 24.7145 25.4785 23.8553 22.9009L22.8915 20.0095C21.6296 21.2419 19.9038 22.0014 18.0006 22.0014C16.0976 22.0014 14.3719 21.2421 13.11 20.0099Z" fill="#D9614C"/>
<rect x="0.5" y="0.5" width="35" height="35" rx="7.5" stroke="#E6EEF2" stroke-opacity="0.5"/>
</svg>