<svg width="36" height="36" viewBox="0 0 36 36" fill="none" xmlns="http://www.w3.org/2000/svg">
<rect width="36" height="36" rx="8" fill="#FFFDFA"/>
<path fill-rule="evenodd" clip-rule="evenodd" d="M11.4196 9.23866C12.2302 9.05852 13.1956 9 14.312 9H15.9296C16.9327 9 17.8694 9.5013 18.4258 10.3359L19.2383 11.5547C19.4238 11.8329 19.736 12 20.0704 12H25.1258C26.7233 12 28.0181 13.2612 28.0029 14.8852C27.9847 16.8192 28 18.7539 28 20.688C28 21.8044 27.9415 22.7698 27.7613 23.5804C27.5787 24.4024 27.2579 25.1251 26.6915 25.6915C26.1251 26.2579 25.4024 26.5787 24.5804 26.7613C23.7698 26.9415 22.8044 27 21.688 27H14.312C13.1956 27 12.2302 26.9415 11.4196 26.7613C10.5976 26.5787 9.87488 26.2579 9.30848 25.6915C8.74209 25.1251 8.42133 24.4024 8.23866 23.5804C8.05852 22.7698 8 21.8044 8 20.688V15.312C8 14.1956 8.05852 13.2302 8.23866 12.4196C8.42133 11.5976 8.74209 10.8749 9.30848 10.3085C9.87488 9.74209 10.5976 9.42133 11.4196 9.23866ZM22.7071 16.2929C23.0976 16.6834 23.0976 17.3166 22.7071 17.7071L17.7735 22.6407C17.3463 23.0679 16.6537 23.0679 16.2265 22.6407L14.2929 20.7071C13.9024 20.3166 13.9024 19.6834 14.2929 19.2929C14.6834 18.9024 15.3166 18.9024 15.7071 19.2929L17 20.5858L21.2929 16.2929C21.6834 15.9024 22.3166 15.9024 22.7071 16.2929Z" fill="#D9614C"/>
<rect x="0.5" y="0.5" width="35" height="35" rx="7.5" stroke="#E6EEF2" stroke-opacity="0.5"/>
</svg>
